# xmcd
#
# Track frame offsets:
#	150
#	11701
#	24300
#	36111
#	48680
#	56808
#	69122
#	82779
#	93832
#	104233
#	115704
#	127370
#	138551
#	149883
#	160612
#	172876
#	183464
#	195818
#
# Disc length: 2761
#
# Revision: 1
# Processed by: cddbd v1.5.1PL0 Copyright (c) Steve Scherf et al.
# Submitted via: VisiTrax 2.9.9.209 - For more info visit www.synapsa.com
# Normalized: r0:DSETVAR1
#
DISCID=f70ac712
DTITLE=Various Artist - Country Heroes
DYEAR=1900
DGENRE=Country
TTITLE0=Freddy Fender - Before The Next Teardrops Falls
TTITLE1=Don Williams - Some Broken Hearts Never Mend
TTITLE2=Tennesse Ernie Ford - Sixteen Tons
TTITLE3=Glen Cambell - I Wanna Live
TTITLE4=Johnny Cash - Guess Things Happen That Way
TTITLE5=Merle Haggard - Okie From Muskogee
TTITLE6=Willie Nelson and Leon Russel - Heartbreak Hotel
TTITLE7=Freddie Hart - Easy Lovin
TTITLE8=Ferlin Husky - Wings Of A Dove
TTITLE9=Charlie Louvin - I Dont Love You Anymore
TTITLE10=George Jones - She Thinks I Still Care
TTITLE11=Conway Twitty - Hello Darlin
TTITLE12=Sonny James - Young Love
TTITLE13=Faron Young - Hello Walls
TTITLE14=Bill Anderson - World Of Make Belive
TTITLE15=Webb Pierce - In The Jailhouse Now
TTITLE16=Ray Price - The Same Old Me
TTITLE17=Don Gibson - Sea Of Heartbreak
EXTD=
EXTT0=
EXTT1=
EXTT2=
EXTT3=
EXTT4=
EXTT5=
EXTT6=
EXTT7=
EXTT8=
EXTT9=
EXTT10=
EXTT11=
EXTT12=
EXTT13=
EXTT14=
EXTT15=
EXTT16=
EXTT17=
PLAYORDER=
